<svg width="15" height="22" viewBox="0 0 15 22" fill="none" xmlns="http://www.w3.org/2000/svg">
<path d="M7.48839 0.212952C3.63291 0.212952 0.496094 3.34977 0.496094 7.20525C0.496094 8.36266 0.785468 9.51024 1.33558 10.5281L7.10602 20.9645C7.18284 21.1036 7.32922 21.1898 7.48839 21.1898C7.64756 21.1898 7.79395 21.1036 7.87077 20.9645L13.6433 10.5247C14.1913 9.51024 14.4807 8.36262 14.4807 7.20521C14.4807 3.34977 11.3439 0.212952 7.48839 0.212952ZM7.48839 10.7014C5.56065 10.7014 3.99226 9.13299 3.99226 7.20525C3.99226 5.27751 5.56065 3.70912 7.48839 3.70912C9.41613 3.70912 10.9845 5.27751 10.9845 7.20525C10.9845 9.13299 9.41613 10.7014 7.48839 10.7014Z" fill="#D7A94B"/>
</svg>
