<svg width="169" height="40" viewBox="0 0 169 40" fill="none" xmlns="http://www.w3.org/2000/svg">
<g clip-path="url(#clip0)">
<path fill-rule="evenodd" clip-rule="evenodd" d="M34.5664 6.29503C37.2398 9.1391 39.0228 12.7032 39.6956 16.5481C40.3683 20.393 39.9015 24.3507 38.3527 27.9336C36.8038 31.5165 34.2406 34.5679 30.9789 36.712C27.7171 38.856 23.8994 39.999 19.9961 40H1.77912C1.68644 40.0008 1.59622 39.9702 1.52314 39.9132C1.45007 39.8562 1.39842 39.7761 1.37662 39.6861C1.35371 39.5932 1.36461 39.4952 1.40739 39.4096C1.45017 39.3241 1.52202 39.2565 1.61007 39.2192C13.8379 33.0771 24.7616 22.8859 33.6326 6.43993C33.6754 6.35796 33.7372 6.28743 33.8128 6.23421C33.8884 6.181 33.9757 6.14665 34.0673 6.13403C34.1586 6.1211 34.2517 6.13045 34.3386 6.16129C34.4255 6.19212 34.5037 6.24354 34.5664 6.31113V6.29503ZM0.579679 0H16.0999C16.1838 0 16.2667 0.01796 16.3431 0.0526726C16.4194 0.0873851 16.4875 0.138046 16.5427 0.201248C16.5967 0.266669 16.6362 0.342888 16.6584 0.424799C16.6806 0.506709 16.6851 0.592421 16.6714 0.676192C14.7636 12.5418 9.73243 24.2222 1.04657 35.6852C0.972103 35.782 0.86896 35.8528 0.751866 35.8875C0.634772 35.9222 0.509711 35.919 0.394531 35.8784C0.278521 35.842 0.17742 35.769 0.106327 35.6703C0.0352339 35.5717 -0.00203522 35.4526 8.57635e-05 35.3311V0.579593C8.57635e-05 0.425876 0.0611499 0.278454 0.169845 0.169759C0.27854 0.0610641 0.425962 0 0.579679 0V0Z" fill="#E31E24"/>
<path d="M62.7899 25.2204V14.7555H65.1083C68.5053 14.7555 70.7432 16.7197 70.7432 20.004C70.7432 23.2884 68.4812 25.2526 65.1083 25.2526L62.7899 25.2204ZM57.1067 30.2596H64.899C72.2888 30.2596 76.6035 25.8644 76.6035 19.9396C76.6035 14.0149 72.3129 9.74039 64.9795 9.74039H57.0664L57.1067 30.2596Z" fill="#E31E24"/>
<path d="M89.3539 30.6701C91.1396 30.7496 92.9154 30.365 94.5082 29.5538C96.101 28.7426 97.4564 27.5325 98.4422 26.0415L94.1838 22.9905C92.9522 24.4878 91.6883 25.478 89.5471 25.478C86.6732 25.478 84.6527 23.063 84.6527 19.996C84.6527 16.929 86.6732 14.4898 89.5471 14.4898C90.4387 14.4985 91.3151 14.7226 92.1014 15.1431C92.8878 15.5636 93.5608 16.168 94.0631 16.9048L98.2088 13.6848C97.2607 12.2867 95.9709 11.1542 94.462 10.3948C92.9531 9.63541 91.275 9.27436 89.5873 9.34594C88.1718 9.31016 86.7636 9.56003 85.4468 10.0806C84.13 10.6012 82.9317 11.3819 81.9233 12.376C80.915 13.37 80.1173 14.5571 79.578 15.8664C79.0387 17.1756 78.7687 18.5801 78.7843 19.996C78.7562 21.3966 79.0097 22.7886 79.5296 24.0895C80.0495 25.3904 80.8253 26.5736 81.811 27.5691C82.7967 28.5645 83.9722 29.3519 85.2679 29.8846C86.5636 30.4173 87.953 30.6844 89.3539 30.6701Z" fill="#E31E24"/>
<path d="M106.436 17.9191V14.3127H110.131C111.829 14.3127 112.707 14.9567 112.707 16.0676C112.707 17.3315 111.741 17.9191 110.01 17.9191H106.436ZM106.436 25.6873V21.9038H110.775C112.683 21.9038 113.56 22.6363 113.56 23.7553C113.56 25.0111 112.562 25.6873 110.831 25.6873H106.436ZM100.897 30.2596H111.475C116.377 30.2596 119.251 28.1183 119.251 24.6247C119.251 21.7831 117.641 20.3743 115.17 19.5532C116.115 19.2189 116.93 18.5942 117.498 17.7686C118.066 16.9429 118.359 15.9587 118.334 14.9567C118.356 14.3341 118.251 13.7134 118.024 13.1332C117.797 12.553 117.453 12.0256 117.013 11.5838C115.814 10.3844 113.995 9.74039 111.378 9.74039H100.897V30.2596Z" fill="white"/>
<path d="M129.797 30.2596H135.488V24.9547L137.573 22.6363L142.733 30.2596H149.559L141.526 18.5631L149.294 9.74039H142.556L135.488 18.064V9.74039H129.797V30.2596Z" fill="white"/>
<path d="M160.056 30.6702C163.306 30.6927 166.46 29.573 168.967 27.5065V18.2733H159.525V22.4351H163.55V24.9547C162.566 25.5371 161.432 25.8171 160.29 25.7597C159.547 25.7801 158.808 25.6478 158.119 25.371C157.429 25.0942 156.804 24.6788 156.282 24.1505C155.76 23.6222 155.352 22.9923 155.083 22.2999C154.814 21.6074 154.69 20.8671 154.719 20.1248C154.719 16.9048 157.005 14.4415 159.968 14.4415C161.806 14.4331 163.578 15.1238 164.926 16.3735L168.267 12.3486C165.972 10.3273 162.992 9.25901 159.935 9.36204C153.576 9.36204 148.883 14.0471 148.883 20.0282C148.883 26.3071 153.664 30.7024 160.056 30.7024" fill="white"/>
<path fill-rule="evenodd" clip-rule="evenodd" d="M124.202 24.4556C124.777 24.454 125.339 24.6231 125.818 24.9415C126.297 25.2598 126.671 25.7131 126.892 26.244C127.113 26.7748 127.172 27.3594 127.061 27.9236C126.95 28.4879 126.674 29.0064 126.267 29.4137C125.861 29.8209 125.344 30.0985 124.78 30.2112C124.216 30.324 123.631 30.2669 123.1 30.0472C122.568 29.8275 122.114 29.4551 121.794 28.977C121.474 28.4989 121.304 27.9368 121.304 27.3617C121.304 26.5923 121.609 25.8544 122.152 25.3096C122.695 24.7649 123.432 24.4578 124.202 24.4556Z" fill="white"/>
</g>
<defs>
<clipPath id="clip0">
<rect width="168.968" height="40" fill="white"/>
</clipPath>
</defs>
</svg>
